<?xml version="1.0" encoding="UTF-8" standalone="no"?>
<!-- Created with Inkscape (http://www.inkscape.org/) -->
<svg
   xmlns:dc="http://purl.org/dc/elements/1.1/"
   xmlns:cc="http://web.resource.org/cc/"
   xmlns:rdf="http://www.w3.org/1999/02/22-rdf-syntax-ns#"
   xmlns:svg="http://www.w3.org/2000/svg"
   xmlns="http://www.w3.org/2000/svg"
   xmlns:sodipodi="http://sodipodi.sourceforge.net/DTD/sodipodi-0.dtd"
   xmlns:inkscape="http://www.inkscape.org/namespaces/inkscape"
   width="321.30316"
   height="123.84859"
   id="svg2"
   sodipodi:version="0.32"
   inkscape:version="0.45.1"
   version="1.0"
   sodipodi:docbase="d:\Marco\Appunti Chim Ind II\image"
   sodipodi:docname="SerpentiniPirolisiVerticali.svg"
   inkscape:output_extension="org.inkscape.output.svg.inkscape">
  <defs
     id="defs4">
    <marker
       inkscape:stockid="Arrow1Mstart"
       orient="auto"
       refY="0"
       refX="0"
       id="Arrow1Mstart"
       style="overflow:visible">
      <path
         id="path3206"
         d="M 0,0 L 5,-5 L -12.5,0 L 5,5 L 0,0 z "
         style="fill-rule:evenodd;stroke:#000000;stroke-width:1pt;marker-start:none"
         transform="matrix(0.4,0,0,0.4,4,0)" />
    </marker>
    <marker
       inkscape:stockid="Arrow1Mend"
       orient="auto"
       refY="0"
       refX="0"
       id="Arrow1Mend"
       style="overflow:visible">
      <path
         id="path3209"
         d="M 0,0 L 5,-5 L -12.5,0 L 5,5 L 0,0 z "
         style="fill-rule:evenodd;stroke:#000000;stroke-width:1pt;marker-start:none"
         transform="matrix(-0.4,0,0,-0.4,-4,0)" />
    </marker>
  </defs>
  <sodipodi:namedview
     id="base"
     pagecolor="#ffffff"
     bordercolor="#666666"
     borderopacity="1.0"
     inkscape:pageopacity="0.0"
     inkscape:pageshadow="2"
     inkscape:zoom="1.8101934"
     inkscape:cx="214.80406"
     inkscape:cy="62.538078"
     inkscape:document-units="px"
     inkscape:current-layer="layer1"
     inkscape:window-width="1280"
     inkscape:window-height="938"
     inkscape:window-x="-4"
     inkscape:window-y="-4" />
  <metadata
     id="metadata7">
    <rdf:RDF>
      <cc:Work
         rdf:about="">
        <dc:format>image/svg+xml</dc:format>
        <dc:type
           rdf:resource="http://purl.org/dc/dcmitype/StillImage" />
      </cc:Work>
    </rdf:RDF>
  </metadata>
  <g
     inkscape:label="Livello 1"
     inkscape:groupmode="layer"
     id="layer1"
     transform="translate(-77.951183,-61.699646)">
    <g
       id="g2203"
       transform="matrix(0,-0.3733165,1,0,49.766596,217.71589)">
      <path
         style="fill:none;fill-rule:evenodd;stroke:#000000;stroke-width:1px;stroke-linecap:butt;stroke-linejoin:miter;stroke-opacity:1"
         d="M 120.22953,76.797333 C 199.82786,76.797333 242.43162,76.797333 322.02995,76.797333"
         id="path2160"
         sodipodi:nodetypes="cc" />
      <path
         style="fill:none;fill-rule:evenodd;stroke:#000000;stroke-width:1px;stroke-linecap:butt;stroke-linejoin:miter;stroke-opacity:1"
         d="M 120.22953,103.42255 C 199.82786,103.42255 279.42618,103.42255 359.02451,103.42255"
         id="path2162" />
      <path
         style="fill:none;fill-rule:evenodd;stroke:#000000;stroke-width:1px;stroke-linecap:butt;stroke-linejoin:miter;stroke-opacity:1"
         d="M 120.22953,130.04778 C 199.82786,130.04778 279.42618,130.04778 359.02451,130.04778"
         id="path2166" />
      <path
         style="fill:none;fill-rule:evenodd;stroke:#000000;stroke-width:1px;stroke-linecap:butt;stroke-linejoin:miter;stroke-opacity:1"
         d="M 120.22953,156.673 C 199.82786,156.673 279.42618,156.673 359.02451,156.673"
         id="path2170" />
      <path
         style="fill:none;fill-rule:evenodd;stroke:#000000;stroke-width:1px;stroke-linecap:butt;stroke-linejoin:miter;stroke-opacity:1"
         d="M 120.22953,183.29822 C 199.82786,183.29822 279.42618,183.29822 359.02451,183.29822"
         id="path2174" />
      <path
         style="fill:none;fill-rule:evenodd;stroke:#000000;stroke-width:1px;stroke-linecap:butt;stroke-linejoin:miter;stroke-opacity:1"
         d="M 120.64555,156.673 C 113.73251,156.673 109.46709,147.79793 109.46709,143.36039 C 109.46709,138.92285 113.71685,130.04778 120.64555,130.04778"
         id="path2176"
         sodipodi:nodetypes="csc" />
      <path
         style="fill:none;fill-rule:evenodd;stroke:#000000;stroke-width:1px;stroke-linecap:butt;stroke-linejoin:miter;stroke-opacity:1"
         d="M 120.74955,103.31855 C 113.36031,103.31855 109.57109,94.443474 109.57109,90.005935 C 109.57109,85.568397 114.12525,76.693321 120.74955,76.693321"
         id="path2178"
         sodipodi:nodetypes="csc" />
      <path
         style="fill:none;fill-rule:evenodd;stroke:#000000;stroke-width:1px;stroke-linecap:butt;stroke-linejoin:miter;stroke-opacity:1"
         d="M 358.40048,183.29822 C 365.17107,183.29822 371.34396,174.38848 371.34396,169.93361 C 371.34396,165.47874 366.64109,156.569 358.40048,156.569"
         id="path2180"
         sodipodi:nodetypes="csc" />
      <path
         style="fill:none;fill-rule:evenodd;stroke:#000000;stroke-width:1px;stroke-linecap:butt;stroke-linejoin:miter;stroke-opacity:1"
         d="M 358.50449,129.94377 C 368.21583,129.94377 373.80133,121.0687 373.80133,116.63116 C 373.80133,112.19362 368.51713,103.31855 358.50449,103.31855"
         id="path2182"
         sodipodi:nodetypes="csc" />
    </g>
    <text
       xml:space="preserve"
       style="font-size:12px;font-style:normal;font-weight:normal;fill:#000000;fill-opacity:1;stroke:none;stroke-width:1px;stroke-linecap:butt;stroke-linejoin:miter;stroke-opacity:1;font-family:Bitstream Vera Sans"
       x="118.88698"
       y="89.071999"
       id="text3399"><tspan
         sodipodi:role="line"
         id="tspan3401"
         x="118.88698"
         y="89.071999">IN</tspan></text>
    <text
       xml:space="preserve"
       style="font-size:12px;font-style:normal;font-weight:normal;fill:#000000;fill-opacity:1;stroke:none;stroke-width:1px;stroke-linecap:butt;stroke-linejoin:miter;stroke-opacity:1;font-family:Bitstream Vera Sans"
       x="324.1871"
       y="168.73863"
       id="text3403"><tspan
         sodipodi:role="line"
         id="tspan3405"
         x="324.1871"
         y="168.73863">OUT</tspan></text>
    <g
       transform="matrix(0,-0.3733165,1,0,156.38504,217.71589)"
       id="g3425">
      <path
         id="path3427"
         d="M 120.22953,76.797333 C 199.82786,76.797333 279.42618,76.797333 359.02451,76.797333"
         style="fill:none;fill-rule:evenodd;stroke:#000000;stroke-width:1px;stroke-linecap:butt;stroke-linejoin:miter;stroke-opacity:1" />
      <path
         id="path3429"
         d="M 120.22953,103.42255 C 199.82786,103.42255 279.42618,103.42255 359.02451,103.42255"
         style="fill:none;fill-rule:evenodd;stroke:#000000;stroke-width:1px;stroke-linecap:butt;stroke-linejoin:miter;stroke-opacity:1" />
      <path
         id="path3431"
         d="M 120.22953,130.04778 C 199.82786,130.04778 279.42618,130.04778 359.02451,130.04778"
         style="fill:none;fill-rule:evenodd;stroke:#000000;stroke-width:1px;stroke-linecap:butt;stroke-linejoin:miter;stroke-opacity:1" />
      <path
         id="path3433"
         d="M 120.22953,156.673 C 199.82786,156.673 279.42618,156.673 359.02451,156.673"
         style="fill:none;fill-rule:evenodd;stroke:#000000;stroke-width:1px;stroke-linecap:butt;stroke-linejoin:miter;stroke-opacity:1" />
      <path
         id="path3435"
         d="M 176.46126,183.29822 C 256.05959,183.29822 279.42618,183.29822 359.02451,183.29822"
         style="fill:none;fill-rule:evenodd;stroke:#000000;stroke-width:1px;stroke-linecap:butt;stroke-linejoin:miter;stroke-opacity:1"
         sodipodi:nodetypes="cc" />
      <path
         sodipodi:nodetypes="csc"
         id="path3437"
         d="M 120.64555,156.673 C 113.73251,156.673 109.46709,147.79793 109.46709,143.36039 C 109.46709,138.92285 113.71685,130.04778 120.64555,130.04778"
         style="fill:none;fill-rule:evenodd;stroke:#000000;stroke-width:1px;stroke-linecap:butt;stroke-linejoin:miter;stroke-opacity:1" />
      <path
         sodipodi:nodetypes="csc"
         id="path3439"
         d="M 120.74955,103.31855 C 113.36031,103.31855 109.57109,94.443474 109.57109,90.005935 C 109.57109,85.568397 114.12525,76.693321 120.74955,76.693321"
         style="fill:none;fill-rule:evenodd;stroke:#000000;stroke-width:1px;stroke-linecap:butt;stroke-linejoin:miter;stroke-opacity:1" />
      <path
         sodipodi:nodetypes="csc"
         id="path3441"
         d="M 358.40048,183.29822 C 365.17107,183.29822 371.34396,174.38848 371.34396,169.93361 C 371.34396,165.47874 366.64109,156.569 358.40048,156.569"
         style="fill:none;fill-rule:evenodd;stroke:#000000;stroke-width:1px;stroke-linecap:butt;stroke-linejoin:miter;stroke-opacity:1" />
      <path
         sodipodi:nodetypes="csc"
         id="path3443"
         d="M 358.50449,129.94377 C 368.21583,129.94377 373.80133,121.0687 373.80133,116.63116 C 373.80133,112.19362 368.51713,103.31855 358.50449,103.31855"
         style="fill:none;fill-rule:evenodd;stroke:#000000;stroke-width:1px;stroke-linecap:butt;stroke-linejoin:miter;stroke-opacity:1" />
    </g>
  </g>
</svg>
